<?xml version="1.0" encoding="iso-8859-1"?>
<!-- Generator: Adobe Illustrator 16.0.4, SVG Export Plug-In . SVG Version: 6.00 Build 0)  -->
<!DOCTYPE svg PUBLIC "-//W3C//DTD SVG 1.1//EN" "http://www.w3.org/Graphics/SVG/1.1/DTD/svg11.dtd">
<svg version="1.1" xmlns="http://www.w3.org/2000/svg" xmlns:xlink="http://www.w3.org/1999/xlink" x="0px" y="0px"
	 width="339.96px" height="149.16px" viewBox="0 0 339.96 149.16" style="enable-background:new 0 0 339.96 149.16;"
	 xml:space="preserve">
<g id="Capa_2">
</g>
<g id="Layer_1">
	<path style="fill-rule:evenodd;clip-rule:evenodd;" d="M93.25,50.53l-0.41,7.289h-0.21c-2.14-4.009-6.85-8.379-15.46-8.379
		c-11.36,0-22.2,9.3-22.2,25.97c0,13.63,8.69,24.05,20.98,24.05c7.68,0,13-3.69,15.76-8.29h0.21v5.521
		c0,12.659-6.76,17.56-15.97,17.56c-6.15,0-11.27-1.88-14.51-3.96l-2.23,6.84c3.95,2.59,10.49,3.98,16.43,3.98
		c6.24,0,13.21-1.391,18.01-5.771c4.81-4.32,7.06-11.41,7.06-22.85V63.92c0-5.89,0.2-9.84,0.41-13.39H93.25z M91.81,78.71
		c0,1.521-0.2,3.239-0.71,4.76c-1.95,5.68-6.96,9.12-12.49,9.12c-9.73,0-14.65-8-14.65-17.63c0-11.44,6.15-18.66,14.75-18.66
		c6.55,0,10.96,4.27,12.6,9.45c0.4,1.22,0.5,2.54,0.5,4.069V78.71z"/>
	<path style="fill-rule:evenodd;clip-rule:evenodd;fill:#820053;" d="M150.5,33.069c-3.26,0-5.61,2.45-5.61,5.621
		c0,3.06,2.25,5.509,5.41,5.509c3.57,0,5.81-2.449,5.71-5.509C156.01,35.52,153.87,33.069,150.5,33.069z"/>
	<path style="fill-rule:evenodd;clip-rule:evenodd;fill:#666666;" d="M186.74,62.24c-0.7,0.25-2.08,0.659-3.72,0.659
		c-1.84,0-3.35-0.47-4.54-1.6c-1.05-1.01-1.69-2.63-1.69-4.52c0.01-3.62,2.5-6.271,6.57-6.271c1.4,0,2.5,0.31,3.02,0.56l-0.37,1.28
		c-0.65-0.289-1.46-0.52-2.69-0.52c-2.95,0-4.88,1.84-4.88,4.88c0,3.08,1.86,4.9,4.68,4.9c1.03,0,1.73-0.15,2.09-0.33v-3.62h-2.46
		v-1.261h3.99V62.24z"/>
	<path style="fill-rule:evenodd;clip-rule:evenodd;fill:#666666;" d="M190.88,56.78c0-1.03-0.02-1.91-0.07-2.72h1.39l0.05,1.709
		h0.07c0.4-1.17,1.35-1.909,2.41-1.909c0.18,0,0.31,0.02,0.45,0.06v1.49c-0.16-0.03-0.32-0.05-0.54-0.05
		c-1.11,0-1.9,0.839-2.12,2.029c-0.04,0.221-0.07,0.471-0.07,0.74v4.65h-1.57V56.78z"/>
	<path style="fill-rule:evenodd;clip-rule:evenodd;fill:#666666;" d="M203.07,58.33c-1.73-0.04-3.69,0.27-3.69,1.96
		c0,1.029,0.68,1.51,1.49,1.51c1.14,0,1.86-0.72,2.11-1.46c0.05-0.16,0.09-0.34,0.09-0.5V58.33z M203.3,62.78l-0.12-1.101h-0.06
		c-0.48,0.681-1.42,1.29-2.66,1.29c-1.77,0-2.67-1.24-2.67-2.5c0-2.1,1.88-3.26,5.24-3.24v-0.18c0-0.72-0.2-2.02-1.98-2.02
		c-0.81,0-1.65,0.26-2.27,0.649l-0.36-1.04c0.72-0.47,1.77-0.779,2.87-0.779c2.66,0,3.31,1.819,3.31,3.569v3.261
		c0,0.75,0.03,1.489,0.14,2.09H203.3z"/>
	<path style="fill-rule:evenodd;clip-rule:evenodd;fill:#666666;" d="M214.89,57.61c0-0.2-0.01-0.471-0.07-0.67
		c-0.23-1.011-1.1-1.83-2.28-1.83c-1.64,0-2.61,1.439-2.61,3.359c0,1.771,0.86,3.229,2.57,3.229c1.06,0,2.03-0.709,2.32-1.889
		c0.06-0.221,0.07-0.44,0.07-0.69V57.61z M216.48,49.99v10.54c0,0.77,0.02,1.649,0.07,2.25h-1.42l-0.07-1.521h-0.04
		c-0.49,0.98-1.55,1.71-2.97,1.71c-2.11,0-3.73-1.779-3.73-4.42c-0.02-2.9,1.79-4.689,3.91-4.689c1.33,0,2.23,0.63,2.63,1.339h0.03
		V49.99H216.48z"/>
	<path style="fill-rule:evenodd;clip-rule:evenodd;fill:#666666;" d="M221.88,58.44c0,1.899,1.1,3.35,2.64,3.35
		c1.52,0,2.65-1.43,2.65-3.391c0-1.479-0.74-3.35-2.61-3.35C222.69,55.05,221.88,56.78,221.88,58.44z M228.79,58.35
		c0,3.22-2.23,4.62-4.34,4.62c-2.36,0-4.18-1.72-4.18-4.479c0-2.921,1.91-4.63,4.33-4.63C227.1,53.86,228.79,55.68,228.79,58.35z"/>
	<path style="fill-rule:evenodd;clip-rule:evenodd;fill:#666666;" d="M243.73,57.569c0.02-1.009-0.41-2.569-2.2-2.569
		c-1.6,0-2.3,1.47-2.43,2.569H243.73z M239.08,58.71c0.04,2.14,1.41,3.02,2.99,3.02c1.14,0,1.82-0.199,2.42-0.449l0.27,1.14
		c-0.56,0.25-1.52,0.54-2.9,0.54c-2.69,0-4.29-1.77-4.29-4.399c0-2.631,1.55-4.7,4.09-4.7c2.84,0,3.6,2.51,3.6,4.109
		c0,0.32-0.04,0.58-0.05,0.74H239.08z"/>
	<path style="fill-rule:evenodd;clip-rule:evenodd;fill:#666666;" d="M249.02,56.42c0-0.9-0.02-1.64-0.07-2.359h1.4l0.09,1.439h0.04
		c0.43-0.83,1.44-1.64,2.88-1.64c1.21,0,3.08,0.72,3.08,3.709v5.211h-1.59v-5.03c0-1.4-0.52-2.57-2.01-2.57
		c-1.05,0-1.86,0.74-2.13,1.62c-0.07,0.2-0.11,0.47-0.11,0.74v5.24h-1.58V56.42z"/>
	
		<path style="fill-rule:evenodd;clip-rule:evenodd;fill:#666666;stroke:#666666;stroke-width:0.72;stroke-linecap:square;stroke-linejoin:round;stroke-miterlimit:10;" d="
		M179.36,69.561v2.5h2.27v1.209h-2.27v4.7c0,1.08,0.31,1.69,1.19,1.69c0.41,0,0.72-0.05,0.92-0.11l0.07,1.19
		c-0.31,0.13-0.79,0.22-1.4,0.22c-0.74,0-1.34-0.24-1.71-0.67c-0.46-0.471-0.62-1.24-0.62-2.271v-4.75h-1.35v-1.209h1.35V69.97
		L179.36,69.561z"/>
	
		<path style="fill-rule:evenodd;clip-rule:evenodd;fill:#666666;stroke:#666666;stroke-width:0.72;stroke-linecap:square;stroke-linejoin:round;stroke-miterlimit:10;" d="
		M192.07,75.569c0.02-1.009-0.41-2.569-2.2-2.569c-1.6,0-2.3,1.47-2.43,2.569H192.07z M187.43,76.71c0.03,2.14,1.4,3.021,2.98,3.021
		c1.14,0,1.82-0.2,2.42-0.45l0.27,1.14c-0.56,0.25-1.52,0.54-2.9,0.54c-2.69,0-4.29-1.77-4.29-4.399c0-2.631,1.55-4.7,4.09-4.7
		c2.84,0,3.6,2.51,3.6,4.109c0,0.32-0.04,0.58-0.05,0.74H187.43z"/>
	
		<path style="fill-rule:evenodd;clip-rule:evenodd;fill:#666666;stroke:#666666;stroke-width:0.72;stroke-linecap:square;stroke-linejoin:round;stroke-miterlimit:10;" d="
		M205.01,80.449c-0.41,0.221-1.33,0.511-2.5,0.511c-2.63,0-4.34-1.79-4.34-4.45c0-2.68,1.84-4.63,4.68-4.63
		c0.94,0,1.77,0.24,2.2,0.45l-0.36,1.23c-0.38-0.221-0.97-0.421-1.84-0.421c-2,0-3.08,1.48-3.08,3.301c0,2.009,1.3,3.259,3.03,3.259
		c0.9,0,1.49-0.239,1.94-0.439L205.01,80.449z"/>
	
		<path style="fill-rule:evenodd;clip-rule:evenodd;fill:#666666;stroke:#666666;stroke-width:0.72;stroke-linecap:square;stroke-linejoin:round;stroke-miterlimit:10;" d="
		M210.1,74.42c0-0.9-0.01-1.64-0.07-2.359h1.41l0.09,1.439h0.03c0.44-0.83,1.44-1.64,2.88-1.64c1.21,0,3.08,0.72,3.08,3.709v5.211
		h-1.58v-5.03c0-1.4-0.52-2.57-2.02-2.57c-1.04,0-1.85,0.74-2.12,1.62c-0.07,0.2-0.11,0.47-0.11,0.74v5.24h-1.59V74.42z"/>
	
		<path style="fill-rule:evenodd;clip-rule:evenodd;fill:#666666;stroke:#666666;stroke-width:0.72;stroke-linecap:square;stroke-linejoin:round;stroke-miterlimit:10;" d="
		M224.31,76.44c0,1.899,1.1,3.35,2.64,3.35c1.52,0,2.65-1.43,2.65-3.391c0-1.479-0.74-3.35-2.61-3.35
		C225.12,73.05,224.31,74.78,224.31,76.44z M231.22,76.35c0,3.22-2.23,4.62-4.34,4.62c-2.36,0-4.18-1.72-4.18-4.479
		c0-2.921,1.91-4.63,4.33-4.63C229.53,71.86,231.22,73.68,231.22,76.35z"/>
	
		<rect x="236.46" y="67.99" style="fill-rule:evenodd;clip-rule:evenodd;fill:#666666;stroke:#666666;stroke-width:0.72;stroke-linecap:square;stroke-linejoin:round;stroke-miterlimit:10;" width="1.58" height="12.79"/>
	
		<path style="fill-rule:evenodd;clip-rule:evenodd;fill:#666666;stroke:#666666;stroke-width:0.72;stroke-linecap:square;stroke-linejoin:round;stroke-miterlimit:10;" d="
		M244.92,76.44c0,1.899,1.09,3.35,2.64,3.35c1.52,0,2.65-1.43,2.65-3.391c0-1.479-0.74-3.35-2.61-3.35
		C245.73,73.05,244.92,74.78,244.92,76.44z M251.83,76.35c0,3.22-2.23,4.62-4.34,4.62c-2.36,0-4.18-1.72-4.18-4.479
		c0-2.921,1.91-4.63,4.33-4.63C250.14,71.86,251.83,73.68,251.83,76.35z"/>
	
		<path style="fill-rule:evenodd;clip-rule:evenodd;fill:#666666;stroke:#666666;stroke-width:0.72;stroke-linecap:square;stroke-linejoin:round;stroke-miterlimit:10;" d="
		M262.94,75.5c0-0.27-0.02-0.5-0.09-0.72c-0.29-0.92-1.07-1.67-2.22-1.67c-1.51,0-2.59,1.27-2.59,3.289
		c0,1.711,0.86,3.131,2.57,3.131c0.98,0,1.86-0.61,2.2-1.62c0.09-0.271,0.13-0.57,0.13-0.841V75.5z M264.57,72.061
		c-0.03,0.63-0.07,1.329-0.07,2.399v5.06c0,1.99-0.39,3.221-1.24,3.971c-0.85,0.8-2.07,1.05-3.17,1.05c-1.04,0-2.2-0.25-2.9-0.721
		l0.4-1.209c0.57,0.359,1.47,0.689,2.56,0.689c1.62,0,2.8-0.851,2.8-3.05v-0.97h-0.03c-0.49,0.81-1.42,1.46-2.77,1.46
		c-2.17,0-3.71-1.841-3.71-4.25c0-2.95,1.92-4.63,3.92-4.63c1.51,0,2.34,0.8,2.72,1.52h0.04l0.07-1.319H264.57z"/>
	
		<path style="fill-rule:evenodd;clip-rule:evenodd;fill:#666666;stroke:#666666;stroke-width:0.72;stroke-linecap:square;stroke-linejoin:round;stroke-miterlimit:10;" d="
		M270.26,80.78v-8.72h1.58v8.72H270.26z M273.48,68.3l-2.19,2.57h-1.14l1.59-2.57H273.48z"/>
	
		<path style="fill-rule:evenodd;clip-rule:evenodd;fill:#666666;stroke:#666666;stroke-width:0.72;stroke-linecap:square;stroke-linejoin:round;stroke-miterlimit:10;" d="
		M282.3,76.33c-1.73-0.04-3.689,0.27-3.689,1.96c0,1.029,0.689,1.51,1.5,1.51c1.13,0,1.85-0.72,2.1-1.46
		c0.06-0.16,0.09-0.34,0.09-0.5V76.33z M282.54,80.78l-0.131-1.101h-0.049c-0.49,0.681-1.42,1.29-2.67,1.29
		c-1.761,0-2.66-1.239-2.66-2.5c0-2.1,1.869-3.26,5.239-3.239V75.05c0-0.72-0.2-2.02-1.979-2.02c-0.811,0-1.66,0.26-2.271,0.649
		l-0.36-1.04c0.721-0.47,1.761-0.779,2.86-0.779c2.671,0,3.311,1.819,3.311,3.569v3.261c0,0.75,0.04,1.489,0.149,2.09H282.54z"/>
	
		<path style="fill-rule:evenodd;clip-rule:evenodd;fill:#666666;stroke:#666666;stroke-width:0.72;stroke-linecap:square;stroke-linejoin:round;stroke-miterlimit:10;" d="
		M289.409,79.16c0.471,0.3,1.301,0.63,2.091,0.63c1.149,0,1.69-0.58,1.69-1.3c0-0.76-0.45-1.171-1.621-1.601
		c-1.56-0.56-2.3-1.43-2.3-2.47c0-1.4,1.13-2.56,3-2.56c0.89,0,1.66,0.26,2.15,0.539l-0.4,1.161c-0.34-0.221-0.97-0.511-1.779-0.511
		c-0.94,0-1.46,0.54-1.46,1.19c0,0.72,0.52,1.04,1.66,1.479c1.509,0.57,2.279,1.33,2.279,2.62c0,1.54-1.189,2.62-3.26,2.62
		c-0.95,0-1.83-0.24-2.44-0.6L289.409,79.16z"/>
	
		<path style="fill-rule:evenodd;clip-rule:evenodd;fill:#666666;stroke:#666666;stroke-width:0.72;stroke-linecap:square;stroke-linejoin:round;stroke-miterlimit:10;" d="
		M177.45,99.78v-8.72h1.59v8.72H177.45z M179.22,88.61c0.02,0.539-0.38,0.979-1.01,0.979c-0.56,0-0.96-0.44-0.96-0.979
		c0-0.561,0.42-0.99,0.99-0.99C178.84,87.62,179.22,88.05,179.22,88.61z"/>
	
		<path style="fill-rule:evenodd;clip-rule:evenodd;fill:#666666;stroke:#666666;stroke-width:0.72;stroke-linecap:square;stroke-linejoin:round;stroke-miterlimit:10;" d="
		M184.63,93.42c0-0.9-0.01-1.64-0.07-2.359h1.41l0.09,1.439h0.03c0.44-0.83,1.44-1.64,2.88-1.64c1.21,0,3.08,0.72,3.08,3.709v5.211
		h-1.58v-5.03c0-1.4-0.52-2.57-2.02-2.57c-1.04,0-1.85,0.74-2.12,1.62c-0.07,0.2-0.11,0.47-0.11,0.74v5.24h-1.59V93.42z"/>
	
		<path style="fill-rule:evenodd;clip-rule:evenodd;fill:#666666;stroke:#666666;stroke-width:0.72;stroke-linecap:square;stroke-linejoin:round;stroke-miterlimit:10;" d="
		M199.43,88.561v2.5h2.27v1.209h-2.27v4.7c0,1.08,0.31,1.69,1.19,1.69c0.41,0,0.72-0.05,0.92-0.11l0.07,1.19
		c-0.31,0.13-0.79,0.22-1.4,0.22c-0.74,0-1.34-0.24-1.72-0.67c-0.45-0.471-0.61-1.24-0.61-2.271v-4.75h-1.35v-1.209h1.35V88.97
		L199.43,88.561z"/>
	
		<path style="fill-rule:evenodd;clip-rule:evenodd;fill:#666666;stroke:#666666;stroke-width:0.72;stroke-linecap:square;stroke-linejoin:round;stroke-miterlimit:10;" d="
		M211.87,94.569c0.02-1.009-0.41-2.569-2.2-2.569c-1.6,0-2.3,1.47-2.43,2.569H211.87z M207.22,95.71
		c0.04,2.14,1.41,3.021,2.99,3.021c1.14,0,1.82-0.2,2.42-0.45l0.27,1.14c-0.56,0.25-1.52,0.54-2.9,0.54
		c-2.69,0-4.29-1.77-4.29-4.399c0-2.631,1.55-4.7,4.09-4.7c2.84,0,3.6,2.51,3.6,4.109c0,0.32-0.04,0.58-0.05,0.74H207.22z"/>
	
		<path style="fill-rule:evenodd;clip-rule:evenodd;fill:#666666;stroke:#666666;stroke-width:0.72;stroke-linecap:square;stroke-linejoin:round;stroke-miterlimit:10;" d="
		M218.33,93.78c0-1.03-0.02-1.91-0.07-2.72h1.38l0.06,1.709h0.07c0.4-1.17,1.35-1.909,2.41-1.909c0.18,0,0.31,0.02,0.45,0.06v1.49
		c-0.16-0.03-0.32-0.05-0.54-0.05c-1.11,0-1.91,0.839-2.12,2.029c-0.04,0.221-0.07,0.471-0.07,0.74v4.65h-1.57V93.78z"/>
	
		<path style="fill-rule:evenodd;clip-rule:evenodd;fill:#666666;stroke:#666666;stroke-width:0.72;stroke-linecap:square;stroke-linejoin:round;stroke-miterlimit:10;" d="
		M231.69,95.33c-1.73-0.04-3.69,0.27-3.69,1.96c0,1.029,0.68,1.51,1.49,1.51c1.14,0,1.86-0.72,2.11-1.46
		c0.05-0.16,0.09-0.34,0.09-0.5V95.33z M231.92,99.78l-0.12-1.101h-0.06c-0.48,0.681-1.42,1.29-2.66,1.29
		c-1.77,0-2.67-1.239-2.67-2.5c0-2.1,1.87-3.26,5.24-3.239V94.05c0-0.72-0.2-2.02-1.98-2.02c-0.81,0-1.66,0.26-2.27,0.649
		l-0.36-1.04c0.72-0.47,1.77-0.779,2.87-0.779c2.66,0,3.31,1.819,3.31,3.569v3.261c0,0.75,0.03,1.489,0.14,2.09H231.92z"/>
	
		<path style="fill-rule:evenodd;clip-rule:evenodd;fill:#666666;stroke:#666666;stroke-width:0.72;stroke-linecap:square;stroke-linejoin:round;stroke-miterlimit:10;" d="
		M244.95,99.449c-0.41,0.221-1.33,0.511-2.5,0.511c-2.63,0-4.34-1.79-4.34-4.45c0-2.68,1.84-4.63,4.68-4.63
		c0.94,0,1.77,0.24,2.2,0.45l-0.36,1.23c-0.38-0.221-0.97-0.421-1.84-0.421c-1.99,0-3.08,1.48-3.08,3.301
		c0,2.009,1.3,3.259,3.03,3.259c0.9,0,1.49-0.239,1.94-0.439L244.95,99.449z"/>
	
		<path style="fill-rule:evenodd;clip-rule:evenodd;fill:#666666;stroke:#666666;stroke-width:0.72;stroke-linecap:square;stroke-linejoin:round;stroke-miterlimit:10;" d="
		M251.92,88.561v2.5h2.27v1.209h-2.27v4.7c0,1.08,0.3,1.69,1.19,1.69c0.41,0,0.72-0.05,0.92-0.11l0.07,1.19
		c-0.31,0.13-0.8,0.22-1.41,0.22c-0.74,0-1.33-0.24-1.71-0.67c-0.45-0.471-0.61-1.24-0.61-2.271v-4.75h-1.35v-1.209h1.35V88.97
		L251.92,88.561z"/>
	
		<path style="fill-rule:evenodd;clip-rule:evenodd;fill:#666666;stroke:#666666;stroke-width:0.72;stroke-linecap:square;stroke-linejoin:round;stroke-miterlimit:10;" d="
		M258.94,99.78v-8.72h1.58v8.72H258.94z M260.7,88.61c0.02,0.539-0.38,0.979-1.01,0.979c-0.55,0-0.95-0.44-0.95-0.979
		c0-0.561,0.41-0.99,0.99-0.99C260.32,87.62,260.7,88.05,260.7,88.61z"/>
	
		<path style="fill-rule:evenodd;clip-rule:evenodd;fill:#666666;stroke:#666666;stroke-width:0.72;stroke-linecap:square;stroke-linejoin:round;stroke-miterlimit:10;" d="
		M266.73,91.061l1.71,4.899c0.29,0.79,0.52,1.51,0.7,2.23h0.06c0.2-0.721,0.45-1.44,0.74-2.23l1.69-4.899h1.66l-3.42,8.72h-1.52
		l-3.31-8.72H266.73z"/>
	
		<path style="fill-rule:evenodd;clip-rule:evenodd;fill:#666666;stroke:#666666;stroke-width:0.72;stroke-linecap:square;stroke-linejoin:round;stroke-miterlimit:10;" d="
		M282.27,95.33c-1.729-0.04-3.689,0.27-3.689,1.96c0,1.029,0.68,1.51,1.489,1.51c1.13,0,1.851-0.72,2.11-1.46
		c0.05-0.16,0.09-0.34,0.09-0.5V95.33z M282.5,99.78l-0.13-1.101h-0.051c-0.489,0.681-1.42,1.29-2.66,1.29
		c-1.77,0-2.669-1.239-2.669-2.5c0-2.1,1.87-3.26,5.239-3.239V94.05c0-0.72-0.199-2.02-1.979-2.02c-0.81,0-1.66,0.26-2.271,0.649
		l-0.359-1.04c0.72-0.47,1.77-0.779,2.859-0.779c2.67,0,3.32,1.819,3.32,3.569v3.261c0,0.75,0.03,1.489,0.141,2.09H282.5z"/>
	
		<path style="fill-rule:evenodd;clip-rule:evenodd;fill:#666666;stroke:#666666;stroke-width:0.72;stroke-linecap:square;stroke-linejoin:round;stroke-miterlimit:10;" d="
		M289.11,98.16c0.459,0.3,1.289,0.63,2.08,0.63c1.159,0,1.699-0.58,1.699-1.3c0-0.76-0.449-1.171-1.62-1.601
		c-1.57-0.56-2.31-1.43-2.31-2.47c0-1.4,1.14-2.56,3.01-2.56c0.88,0,1.65,0.26,2.141,0.539l-0.4,1.161
		c-0.34-0.221-0.97-0.511-1.78-0.511c-0.93,0-1.46,0.54-1.46,1.19c0,0.72,0.53,1.04,1.66,1.479c1.51,0.57,2.29,1.33,2.29,2.62
		c0,1.54-1.19,2.62-3.261,2.62c-0.96,0-1.84-0.24-2.449-0.6L289.11,98.16z"/>
	<path style="fill-rule:evenodd;clip-rule:evenodd;fill:#820053;" d="M115.25,33.49v16.989h-11.76v6.961h11.76V84.55
		c0,5.85,0.94,10.149,3.56,12.63c2.19,2.28,5.55,3.52,9.74,3.52c3.48,0,6.24-0.469,7.97-1.139l-0.41-6.33
		c-1.12,0.3-2.89,0.609-5.24,0.609c-5.01,0-6.74-3.49-6.74-9.649V57.44h22.8V99.68h10.08V56.09c-0.24-0.391-4.89-5.61-4.89-5.61
		h-27.99V31.13L115.25,33.49z"/>
	<path style="fill-rule:evenodd;clip-rule:evenodd;fill:#820053;" d="M146.93,55.52c0-2.779,2.26-5.04,5.04-5.04
		c2.78,0,5.04,2.261,5.04,5.04c0,2.78-2.26,5.041-5.04,5.041C149.19,60.561,146.93,58.3,146.93,55.52z"/>
</g>
</svg>
